:SAMPLES-PER-SECOND 30
:FULLY-SPECIFIED
:DEGREES
432
root  57.418 26.3793 6.84104 -111.884 80.2941 -84.4892
RightUpLeg  -33.516 -11.1248 2.21368
RightLeg  82.9784 0.619871 4.32489
RightFoot  -23.2852 -0.00386312 1.47573
RightToes  3.49245e-010 0 -3.6325e-017
Spine  83.5275 -11.0605 15.9157
Spine1  -8.27682 5.03818 5.75505
HEad  -59.5096 -0.0789036 3.77329
LeftShoulder1  3.14831 -7.96658 -21.0725
LeftArm  -49.3558 -35.6827 -16.6441
LeftForeArm  12.1678 -73.8377 -44.7226
LeftHand  -0.171621 1.16317 4.61017
RightShoulder  0.000370152 7.07848 -9.68601
RightArm  -49.8671 22.1536 9.28166
RightForeArm  28.4762 77.6443 90.6498
RightHand  0.882149 -15.3097 -10.9536
LeftUpLeg  -29.7674 1.06602 31.8543
LeftLeg  101.235 3.04781 -13.9758
LeftFoot  -17.8388 -0.532621 -11.3942
LeftToes  -2.21735e-009 9.83027e-011 -4.04511e-011
433
root  58.2019 26.2809 6.79662 142.96 84.7144 152.261
RightUpLeg  -55.4285 -8.77491 -9.13215
RightLeg  88.158 0.303363 6.78731
RightFoot  -24.0711 -0.0365179 1.13135
RightToes  3.49245e-010 0 -3.6325e-017
Spine  61.6103 -2.45879 8.51168
Spine1  -5.19177 1.49323 5.6871
HEad  -57.4014 -0.272357 3.42907
LeftShoulder1  3.09939 -7.74404 -21.187
LeftArm  -47.4528 -37.4668 -16.6543
LeftForeArm  0.840903 -69.5632 -33.4007
LeftHand  -0.148505 1.61351 4.36738
RightShoulder  0.0459075 7.04606 -9.18973
RightArm  -48.1501 26.7537 8.89509
RightForeArm  6.29399 76.1521 61.1518
RightHand  0.595904 -17.1201 -6.50051
LeftUpLeg  -48.4138 12.1261 15.328
LeftLeg  103.547 2.77957 -10.8417
LeftFoot  -7.70135 0.54139 -14.9419
LeftToes  -2.21735e-009 9.83027e-011 -4.04511e-011
434
root  58.6799 27.0871 6.76542 126.039 84.8356 136.537
RightUpLeg  -50.9781 -9.63438 -9.85718
RightLeg  85.5443 0.603548 7.19919
RightFoot  -24.389 -0.0398575 1.09225
RightToes  3.49245e-010 0 -3.6325e-017
Spine  59.4211 -3.23861 8.6391
Spine1  -4.68357 0.727595 5.87384
HEad  -54.7067 -0.840269 3.14881
LeftShoulder1  3.14598 -7.7788 -21.5376
LeftArm  -45.8319 -39.8434 -15.208
LeftForeArm  -7.37513 -64.1062 -25.0465
LeftHand  -0.12487 1.68451 3.69783
RightShoulder  0.0320581 7.25697 -9.34777
RightArm  -46.1004 30.0372 9.22533
RightForeArm  -6.3151 72.3338 42.0484
RightHand  0.131145 -18.9951 -2.1336
LeftUpLeg  -48.0352 11.1402 14.7412
LeftLeg  102.091 2.22339 -9.86077
LeftFoot  -2.06907 1.48405 -18.3565
LeftToes  -2.21735e-009 9.83027e-011 -4.04511e-011
435
root  59.1092 27.9786 6.77491 127.922 84.371 138.868
RightUpLeg  -47.1905 -10.281 -10.212
RightLeg  82.557 0.987826 7.30021
RightFoot  -24.0613 -0.111767 0.460307
RightToes  3.49245e-010 0 -3.6325e-017
Spine  56.6006 -3.47524 8.57631
Spine1  -3.66081 0.0105573 6.01875
HEad  -52.0106 -1.49699 3.56407
LeftShoulder1  3.13227 -7.60149 -21.8802
LeftArm  -44.331 -42.5218 -14.184
LeftForeArm  -10.7011 -58.9605 -20.0671
LeftHand  -0.118851 1.74257 3.5611
RightShoulder  0.0671441 7.31305 -8.97786
RightArm  -44.8411 33.8724 8.50022
RightForeArm  -12.8547 67.2044 30.4172
RightHand  -0.50128 -20.9467 2.83482
LeftUpLeg  -47.5448 10.6198 13.5553
LeftLeg  99.1619 1.45491 -8.73355
LeftFoot  -0.227899 1.38805 -14.1863
LeftToes  -2.21735e-009 9.83027e-011 -4.04511e-011
436
root  59.4904 28.9834 6.86507 127.703 84.7336 139.616
RightUpLeg  -42.6143 -9.8258 -9.8249
RightLeg  78.5433 1.46845 7.09642
RightFoot  -23.9942 -0.0563403 0.956863
RightToes  3.49245e-010 0 -3.6325e-017
Spine  55.5 -3.28139 8.25741
Spine1  -3.44779 -0.0582883 5.85476
HEad  -51.1484 -0.355487 4.18023
LeftShoulder1  3.10032 -7.34655 -22.2701
LeftArm  -42.9404 -45.8141 -12.5934
LeftForeArm  -14.8708 -53.2536 -16.2429
LeftHand  -0.103239 2.2922 3.47583
RightShoulder  0.0643797 7.72298 -9.02475
RightArm  -42.8542 37.7334 7.6565
RightForeArm  -22.9133 60.5717 22.3986
RightHand  -0.143894 -19.6813 0.270898
LeftUpLeg  -45.3738 10.872 13.0839
LeftLeg  93.7514 0.622133 -8.74517
LeftFoot  -0.48094 0.747362 -7.7532
LeftToes  -2.21735e-009 9.83027e-011 -4.04511e-011
